<?xml version="1.0" standalone="no"?>
<!DOCTYPE svg PUBLIC "-//W3C//DTD SVG 20010904//EN"
 "http://www.w3.org/TR/2001/REC-SVG-20010904/DTD/svg10.dtd">
<svg version="1.0" xmlns="http://www.w3.org/2000/svg"
 width="700.000000pt" height="700.000000pt" viewBox="0 0 700.000000 700.000000"
 preserveAspectRatio="xMidYMid meet">
<metadata>
Created by potrace 1.14, written by Peter Selinger 2001-2017
</metadata>
<g transform="translate(0.000000,700.000000) scale(0.100000,-0.100000)"
fill="#000000" stroke="none">
<path d="M3298 6995 c-1 -1 -46 -5 -99 -9 -53 -4 -104 -8 -115 -10 -10 -2 -41
-7 -69 -10 -27 -4 -72 -11 -100 -16 -27 -5 -61 -12 -75 -14 -209 -38 -523
-132 -677 -202 -28 -13 -54 -24 -57 -24 -12 0 -250 -119 -326 -163 -47 -28
-94 -55 -105 -61 -31 -17 -229 -149 -235 -156 -3 -3 -39 -31 -80 -62 -205
-154 -446 -394 -624 -622 -332 -426 -575 -963 -671 -1481 -10 -49 -18 -97 -20
-105 -2 -9 -6 -43 -10 -75 -4 -33 -9 -69 -11 -79 -25 -139 -25 -674 0 -813 2
-10 7 -45 11 -78 4 -32 9 -68 11 -80 2 -11 7 -36 10 -55 15 -94 61 -280 101
-410 171 -554 469 -1046 878 -1452 360 -358 787 -629 1265 -805 209 -76 507
-152 705 -178 22 -2 56 -7 75 -10 193 -27 658 -27 850 1 447 65 789 171 1163
359 71 36 145 76 165 90 20 14 40 25 45 25 4 0 13 5 20 10 7 6 64 44 127 86
260 173 482 369 715 635 17 19 46 54 65 79 19 25 38 50 43 55 158 193 365 557
475 835 71 178 147 428 177 580 52 268 67 409 70 675 1 132 -1 276 -5 320 -15
157 -21 210 -25 225 -2 8 -7 35 -10 60 -17 129 -80 384 -136 552 -350 1043
-1171 1861 -2221 2212 -156 52 -409 114 -538 131 -19 3 -46 7 -60 10 -13 2
-52 7 -86 11 -33 3 -74 8 -90 10 -33 5 -520 14 -526 9z m289 -2063 c77 -128
251 -418 272 -452 41 -66 328 -539 337 -555 6 -11 127 -211 269 -445 142 -234
353 -582 470 -775 116 -192 233 -385 258 -427 26 -42 47 -78 47 -80 0 -9 -856
-2 -871 7 -14 8 -114 94 -153 130 -6 6 -60 53 -121 105 -60 52 -112 97 -115
100 -3 3 -54 48 -115 100 -60 52 -123 107 -140 122 -16 14 -41 36 -55 48 -14
11 -49 42 -79 68 -30 26 -77 67 -105 91 -28 24 -64 55 -81 70 -16 14 -66 57
-110 95 -82 70 -199 173 -219 191 -6 6 -38 33 -71 60 -33 28 -67 57 -75 65 -8
9 -62 56 -120 105 -58 50 -115 99 -127 110 l-23 20 64 105 c34 58 188 312 341
565 153 253 312 517 354 587 42 70 78 127 81 128 3 0 42 -62 87 -138z m-1957
-722 c3 -3 34 -30 70 -60 36 -30 78 -67 95 -81 216 -187 359 -311 435 -375 76
-65 210 -181 240 -208 19 -17 67 -58 105 -91 39 -33 72 -62 75 -65 6 -7 158
-139 184 -160 10 -8 42 -36 70 -61 28 -25 67 -59 86 -76 31 -26 393 -340 475
-412 17 -14 64 -55 105 -91 41 -36 77 -67 80 -70 3 -3 71 -63 153 -133 81 -71
147 -129 147 -131 0 -1 -533 -2 -1185 -2 l-1185 0 -1 26 c-1 14 -2 48 -4 75
-1 28 -6 147 -10 265 -4 118 -9 244 -10 280 -1 36 -6 148 -10 250 -3 102 -8
223 -10 270 -2 47 -7 162 -10 255 -3 94 -8 211 -10 260 -2 50 -7 171 -10 269
l-7 179 64 -54 c35 -30 65 -56 68 -59z m3865 -52 c-6 -187 -13 -386 -20 -538
-2 -58 -7 -189 -10 -292 -4 -103 -8 -235 -10 -295 -6 -166 -18 -534 -19 -570
0 -39 -10 -42 -28 -8 -7 14 -178 300 -380 635 l-367 610 212 158 c117 86 304
226 416 309 113 84 206 153 208 153 2 0 1 -73 -2 -162z"/>
</g>
</svg>
